<?xml version="1.0" encoding="UTF-8" standalone="no"?>
<svg
   xmlns:dc="http://purl.org/dc/elements/1.1/"
   xmlns:cc="http://creativecommons.org/ns#"
   xmlns:rdf="http://www.w3.org/1999/02/22-rdf-syntax-ns#"
   xmlns:svg="http://www.w3.org/2000/svg"
   xmlns="http://www.w3.org/2000/svg"
   id="svg8"
   version="1.1"
   viewBox="0 0 210 297"
   height="297mm"
   width="210mm">
  <defs
     id="defs2" />
  <metadata
     id="metadata5">
    <rdf:RDF>
      <cc:Work
         rdf:about="">
        <dc:format>image/svg+xml</dc:format>
        <dc:type
           rdf:resource="http://purl.org/dc/dcmitype/StillImage" />
        <dc:title></dc:title>
      </cc:Work>
    </rdf:RDF>
  </metadata>
  <g
     id="layer1">
    <path
       style="fill:#fdfdfd;stroke-width:0.26458332"
       d="m 59.720237,184.3631 v -23.15104 h 42.333323 42.33334 v 23.15104 23.15104 H 102.05356 59.720237 Z m 66.948993,20.77185 c 3.93733,-1.16288 7.02403,-3.26759 8.21455,-5.6012 1.14636,-2.24705 0.84476,-5.53803 -0.72489,-7.90993 -0.82223,-1.24247 -3.07331,-2.82924 -4.32408,-3.048 l -0.92604,-0.16196 0.92604,0.74844 c 3.26828,2.6415 4.49922,4.37457 4.49644,6.33069 -0.003,1.83027 -0.47144,2.93084 -1.71481,4.02529 -2.85301,2.51132 -6.66522,3.76253 -11.46376,3.76253 -2.85605,0 -3.16196,-0.0538 -5.44027,-0.95719 -4.92946,-1.95458 -9.26964,-4.57476 -8.80993,-5.31858 0.0975,-0.15771 0.92157,-0.36592 1.83134,-0.46269 2.32967,-0.2478 4.25599,-0.83032 4.82502,-1.4591 0.26726,-0.29531 0.41652,-0.60634 0.33169,-0.69117 -0.0848,-0.0848 -0.98054,-0.026 -1.99048,0.13067 -1.00994,0.1567 -3.20529,0.3631 -4.87855,0.45867 l -3.04231,0.17375 -2.86549,-1.79876 c -3.859408,-2.42268 -7.316094,-4.02129 -10.107109,-4.67423 -1.272964,-0.29781 -2.463308,-0.58402 -2.645209,-0.63603 -0.495178,-0.14158 -0.426471,-3.56535 0.09785,-4.87574 0.532628,-1.33118 1.729738,-2.06107 4.987174,-3.04075 1.305171,-0.39254 3.269702,-1.16391 4.365625,-1.71416 3.494839,-1.75472 4.078039,-1.87791 6.225909,-1.31509 2.43204,0.63728 3.64596,0.63069 5.7548,-0.0312 1.63594,-0.5135 1.79382,-0.52072 2.57318,-0.1177 0.99602,0.51507 2.25648,2.41827 2.80586,4.23664 0.21983,0.72761 0.69253,3.16839 1.05044,5.42396 0.79652,5.01966 0.96618,5.66604 1.51494,5.77178 1.10106,0.21215 1.13304,-3.27608 0.0772,-8.41761 -0.82862,-4.035 -1.51604,-5.96032 -2.59576,-7.2702 -1.38809,-1.684 -2.85995,-2.02745 -6.12306,-1.42879 -1.42505,0.26144 -1.84229,0.22988 -3.49862,-0.26459 -3.55214,-1.06043 -4.41379,-0.83723 -13.112937,3.3968 -5.441251,2.64835 -6.111504,3.44494 -6.694708,7.95661 l -0.155016,1.19921 -3.279367,0.0498 c -5.819383,0.0884 -9.62065,1.35034 -12.380542,4.11024 -2.442291,2.44229 -2.979053,5.14077 -1.427253,7.17529 1.298787,1.7028 6.198083,2.80001 12.510225,2.80171 3.998521,0.001 6.112744,-0.17116 14.646262,-1.1932 2.983177,-0.35729 5.840666,-0.68457 6.349986,-0.7273 l 0.92605,-0.0777 -1.05834,-0.32184 c -1.26744,-0.38544 -6.472495,-0.42532 -9.175113,-0.0703 -3.505943,0.46054 -4.53082,0.53565 -9.610291,0.70435 -5.679459,0.18863 -8.932474,-0.10316 -10.982651,-0.98512 -2.307983,-0.99287 -2.85751,-2.23147 -1.858677,-4.18935 0.720429,-1.41215 2.914809,-2.70792 6.62362,-3.91121 2.012228,-0.65284 8.254702,-0.64611 11.244791,0.0121 5.311788,1.16935 8.688337,2.66692 14.370111,6.37346 8.58676,5.60161 12.24861,7.57299 15.26321,8.21701 2.50087,0.53427 6.31437,0.36739 8.87296,-0.38828 z"
       id="path25" />
    <path
       style="fill:#494949;stroke-width:0.46943185"
       d="m 118.80658,82.738074 c -4.89408,-1.248759 -10.83894,-5.071278 -24.779175,-15.932835 -9.22413,-7.187005 -14.70581,-10.090803 -23.32928,-12.35818 -4.854279,-1.276332 -14.98867,-1.289381 -18.255437,-0.02346 -6.021097,2.333167 -9.583579,4.845674 -10.753165,7.583861 -1.621563,3.796342 -0.729429,6.197995 3.017483,8.123157 3.328375,1.710146 8.609507,2.275928 17.829867,1.910174 8.246302,-0.327111 9.910152,-0.472769 15.601902,-1.365759 4.38758,-0.688367 12.83776,-0.611039 14.89541,0.136312 l 1.71817,0.62405 -1.5034,0.150661 c -0.82686,0.0828 -5.46588,0.717471 -10.30894,1.410259 -13.85381,1.981722 -17.286157,2.315716 -23.777586,2.313622 C 48.914935,75.306034 40.961136,73.17914 38.852611,69.8774 34.222413,62.626971 41.490338,51.690916 52.812984,48.871213 c 1.722645,-0.428986 5.527842,-0.823438 8.455994,-0.876547 l 5.323913,-0.09656 0.251664,-2.325256 c 0.94681,-8.748157 2.03493,-10.29275 10.86857,-15.427918 14.12271,-8.209811 15.52156,-8.642598 21.28831,-6.586417 2.688985,0.95878 3.366355,1.019976 5.679865,0.513022 5.29752,-1.160786 7.68702,-0.494834 9.94052,2.770433 1.75288,2.539885 2.86888,6.273093 4.21411,14.096984 1.71413,9.96946 1.66221,16.73316 -0.12533,16.3218 -0.89089,-0.205031 -1.16633,-1.458366 -2.45944,-11.191519 -0.58105,-4.373564 -1.34846,-9.106272 -1.70535,-10.517093 -0.89189,-3.52585 -2.93819,-7.216167 -4.55519,-8.214872 -1.26526,-0.781458 -1.52157,-0.767459 -4.17745,0.228221 -3.42361,1.283506 -5.39436,1.296284 -9.342675,0.0605 -3.48698,-1.091311 -4.43378,-0.852445 -10.1075,2.549968 -1.77919,1.066938 -4.96853,2.56263 -7.08742,3.323748 -5.2883,1.899625 -7.23176,3.314887 -8.09646,5.896053 -0.8512,2.540855 -0.96275,9.179547 -0.15886,9.454091 0.29531,0.100829 2.22779,0.655811 4.29439,1.233247 4.53109,1.266074 10.14288,4.365789 16.40845,9.063362 l 4.65202,3.487827 4.939065,-0.336922 c 2.71647,-0.185369 6.28052,-0.585503 7.92012,-0.889345 1.63959,-0.303842 3.09374,-0.417856 3.23146,-0.25337 0.13767,0.164428 -0.10455,0.767556 -0.53849,1.340183 -0.92379,1.219209 -4.05109,2.348719 -7.83321,2.829205 -1.47697,0.187695 -2.81487,0.591358 -2.9731,0.897139 -0.74632,1.442291 6.29977,6.522818 14.30254,10.312761 3.69874,1.75164 4.19537,1.856017 8.83205,1.856017 7.79023,0 13.97919,-2.426104 18.61093,-7.29557 2.01856,-2.122146 2.77971,-4.256158 2.78392,-7.805063 0.005,-3.792929 -1.99387,-7.153363 -7.29978,-12.275249 l -1.50339,-1.45123 1.50339,0.314042 c 2.03055,0.424177 5.68509,3.500934 7.01996,5.910072 2.54826,4.599149 3.03789,10.98038 1.17683,15.337424 -3.66624,8.583167 -17.28039,14.282722 -27.74085,11.61366 z"
       id="path23" />
  </g>
</svg>
