<?xml version="1.0"?>
<svg width="640" height="480" xmlns="http://www.w3.org/2000/svg" xmlns:svg="http://www.w3.org/2000/svg" xmlns:xlink="http://www.w3.org/1999/xlink" style="vector-effect: non-scaling-stroke;">
 <!-- Created with SVG-edit - https://github.com/SVG-Edit/svgedit-->
 <defs style="vector-effect: non-scaling-stroke;">
  <radialGradient cx="0.244812" cy="0.816406" id="svg_1" spreadMethod="pad" style="vector-effect: non-scaling-stroke;">
   <stop offset="0" stop-color="#ea7e19" style="vector-effect: non-scaling-stroke;"/>
   <stop offset="1" stop-color="#1581e6" style="vector-effect: non-scaling-stroke;"/>
  </radialGradient>
  <symbol height="297mm" id="svg_28" style="vector-effect: non-scaling-stroke;" viewBox="0 0 210 297" width="210mm" xmlns="http://www.w3.org/2000/svg" xmlns:svg="http://www.w3.org/2000/svg">

   <metadata id="svg_27" style="vector-effect: non-scaling-stroke;">image/svg+xml</metadata>
   <g id="svg_24" style="vector-effect: non-scaling-stroke;">
    <path d="m59.72024,184.3631l0,-23.15104l42.33332,0l42.33334,0l0,23.15104l0,23.15104l-42.33334,0l-42.33332,0l0,-23.15104zm66.94899,20.77185c3.93733,-1.16288 7.02403,-3.26759 8.21455,-5.6012c1.14636,-2.24705 0.84476,-5.53803 -0.72489,-7.90993c-0.82223,-1.24247 -3.07331,-2.82924 -4.32408,-3.048l-0.92604,-0.16196l0.92604,0.74844c3.26828,2.6415 4.49922,4.37457 4.49644,6.33069c-0.003,1.83027 -0.47144,2.93084 -1.71481,4.02529c-2.85301,2.51132 -6.66522,3.76253 -11.46376,3.76253c-2.85605,0 -3.16196,-0.0538 -5.44027,-0.95719c-4.92946,-1.95458 -9.26964,-4.57476 -8.80993,-5.31858c0.0975,-0.15771 0.92157,-0.36592 1.83134,-0.46269c2.32967,-0.2478 4.25599,-0.83032 4.82502,-1.4591c0.26726,-0.29531 0.41652,-0.60634 0.33169,-0.69117c-0.0848,-0.0848 -0.98054,-0.026 -1.99048,0.13067c-1.00994,0.1567 -3.20529,0.3631 -4.87855,0.45867l-3.04231,0.17375l-2.86549,-1.79876c-3.85941,-2.42268 -7.31609,-4.02129 -10.10711,-4.67423c-1.27296,-0.29781 -2.46331,-0.58402 -2.64521,-0.63603c-0.49518,-0.14158 -0.42647,-3.56535 0.09785,-4.87574c0.53263,-1.33118 1.72974,-2.06107 4.98718,-3.04075c1.30517,-0.39254 3.2697,-1.16391 4.36562,-1.71416c3.49484,-1.75472 4.07804,-1.87791 6.22591,-1.31509c2.43204,0.63728 3.64596,0.63069 5.7548,-0.0312c1.63594,-0.5135 1.79382,-0.52072 2.57318,-0.1177c0.99602,0.51507 2.25648,2.41827 2.80586,4.23664c0.21983,0.72761 0.69253,3.16839 1.05044,5.42396c0.79652,5.01966 0.96618,5.66604 1.51494,5.77178c1.10106,0.21215 1.13304,-3.27608 0.0772,-8.41761c-0.82862,-4.035 -1.51604,-5.96032 -2.59576,-7.2702c-1.38809,-1.684 -2.85995,-2.02745 -6.12306,-1.42879c-1.42505,0.26144 -1.84229,0.22988 -3.49862,-0.26459c-3.55214,-1.06043 -4.41379,-0.83723 -13.11294,3.3968c-5.44125,2.64835 -6.1115,3.44494 -6.69471,7.95661l-0.15501,1.19921l-3.27937,0.0498c-5.81938,0.0884 -9.62065,1.35034 -12.38054,4.11024c-2.44229,2.44229 -2.97905,5.14077 -1.42725,7.17529c1.29878,1.7028 6.19808,2.80001 12.51022,2.80171c3.99852,0.001 6.11275,-0.17116 14.64626,-1.1932c2.98318,-0.35729 5.84067,-0.68457 6.34999,-0.7273l0.92605,-0.0777l-1.05834,-0.32184c-1.26744,-0.38544 -6.4725,-0.42532 -9.17511,-0.0703c-3.50595,0.46054 -4.53082,0.53565 -9.61029,0.70435c-5.67946,0.18863 -8.93248,-0.10316 -10.98266,-0.98512c-2.30798,-0.99287 -2.85751,-2.23147 -1.85867,-4.18935c0.72043,-1.41215 2.91481,-2.70792 6.62362,-3.91121c2.01223,-0.65284 8.2547,-0.64611 11.24479,0.0121c5.31179,1.16935 8.68834,2.66692 14.37011,6.37346c8.58676,5.60161 12.24861,7.57299 15.26321,8.21701c2.50087,0.53427 6.31437,0.36739 8.87296,-0.38828l-0.00001,-0.00003z" fill="#fdfdfd" id="svg_26" stroke-width="0.264583" style="vector-effect: non-scaling-stroke;"/>
    <path d="m118.80658,82.73807c-4.89408,-1.24876 -10.83894,-5.07127 -24.77917,-15.93283c-9.22414,-7.18701 -14.70581,-10.0908 -23.32928,-12.35818c-4.85428,-1.27633 -14.98867,-1.28938 -18.25544,-0.02346c-6.0211,2.33317 -9.58358,4.84567 -10.75317,7.58386c-1.62156,3.79634 -0.72943,6.198 3.01749,8.12316c3.32837,1.71014 8.6095,2.27592 17.82986,1.91017c8.2463,-0.32711 9.91016,-0.47277 15.60191,-1.36576c4.38758,-0.68836 12.83776,-0.61104 14.89541,0.13631l1.71817,0.62405l-1.5034,0.15067c-0.82686,0.0828 -5.46588,0.71747 -10.30894,1.41025c-13.85381,1.98173 -17.28616,2.31572 -23.77759,2.31363c-10.2475,-0.00391 -18.20129,-2.1308 -20.30982,-5.43254c-4.6302,-7.25043 2.63773,-18.18648 13.96037,-21.00619c1.72265,-0.42898 5.52785,-0.82344 8.456,-0.87654l5.32391,-0.09656l0.25167,-2.32526c0.94681,-8.74816 2.03493,-10.29275 10.86857,-15.42792c14.12271,-8.20981 15.52156,-8.6426 21.28831,-6.58642c2.68898,0.95878 3.36635,1.01998 5.67986,0.51303c5.29752,-1.16079 7.68702,-0.49484 9.94052,2.77043c1.75288,2.53988 2.86888,6.27309 4.21411,14.09698c1.71413,9.96946 1.66221,16.73316 -0.12533,16.3218c-0.89089,-0.20503 -1.16633,-1.45836 -2.45944,-11.19152c-0.58105,-4.37356 -1.34846,-9.10627 -1.70535,-10.51709c-0.89189,-3.52585 -2.93819,-7.21617 -4.55519,-8.21487c-1.26526,-0.78146 -1.52157,-0.76746 -4.17745,0.22822c-3.42361,1.28351 -5.39436,1.29628 -9.34267,0.0605c-3.48698,-1.09131 -4.43378,-0.85244 -10.1075,2.54997c-1.77919,1.06694 -4.96853,2.56263 -7.08742,3.32375c-5.2883,1.89962 -7.23176,3.31488 -8.09646,5.89605c-0.8512,2.54085 -0.96275,9.17955 -0.15886,9.45409c0.29531,0.10083 2.22779,0.65581 4.29439,1.23325c4.53109,1.26607 10.14288,4.36579 16.40845,9.06336l4.65202,3.48783l4.93906,-0.33693c2.71647,-0.18536 6.28052,-0.5855 7.92012,-0.88934c1.63959,-0.30384 3.09374,-0.41786 3.23146,-0.25337c0.13767,0.16443 -0.10455,0.76756 -0.53849,1.34018c-0.92379,1.21921 -4.05109,2.34872 -7.83321,2.82921c-1.47697,0.18769 -2.81487,0.59136 -2.9731,0.89714c-0.74632,1.44229 6.29977,6.52281 14.30254,10.31276c3.69874,1.75164 4.19537,1.85601 8.83205,1.85601c7.79023,0 13.97919,-2.4261 18.61093,-7.29557c2.01856,-2.12214 2.77971,-4.25615 2.78392,-7.80506c0.005,-3.79293 -1.99387,-7.15336 -7.29978,-12.27525l-1.50339,-1.45123l1.50339,0.31404c2.03055,0.42418 5.68509,3.50094 7.01996,5.91008c2.54826,4.59915 3.03789,10.98038 1.17683,15.33742c-3.66624,8.58317 -17.28039,14.28272 -27.74085,11.61366l0.00002,0.00003z" fill="#494949" id="svg_25" stroke-width="0.469432" style="vector-effect: non-scaling-stroke;"/>
   </g>
  </symbol>
  <radialGradient cx="0.487" cy="0.46875" id="svg_32" r="0.5" spreadMethod="pad" style="vector-effect: non-scaling-stroke;">
   <stop offset="0" stop-color="#ea7e19" style="vector-effect: non-scaling-stroke;"/>
   <stop offset="1" stop-color="#1581e6" style="vector-effect: non-scaling-stroke;"/>
  </radialGradient>
  <radialGradient cx="0.529968" cy="0.714844" id="svg_33" r="0.5" spreadMethod="pad" style="vector-effect: non-scaling-stroke;">
   <stop offset="0" stop-color="#ea7e19" style="vector-effect: non-scaling-stroke;"/>
   <stop offset="1" stop-color="#1581e6" style="vector-effect: non-scaling-stroke;"/>
  </radialGradient>
  <radialGradient cx="0.498718" cy="0.714844" id="svg_34" r="0.5" spreadMethod="pad" style="vector-effect: non-scaling-stroke;">
   <stop offset="0" stop-color="#ea7e19" style="vector-effect: non-scaling-stroke;"/>
   <stop offset="1" stop-color="#1581e6" style="vector-effect: non-scaling-stroke;"/>
  </radialGradient>
  <radialGradient cx="0.467468" cy="0.710938" id="svg_35" r="0.5" spreadMethod="pad" style="vector-effect: non-scaling-stroke;">
   <stop offset="0" stop-color="#ea7e19" style="vector-effect: non-scaling-stroke;"/>
   <stop offset="1" stop-color="#1581e6" style="vector-effect: non-scaling-stroke;"/>
  </radialGradient>
  <radialGradient cx="0.471375" cy="0.601563" id="svg_36" r="0.5" spreadMethod="pad" style="vector-effect: non-scaling-stroke;">
   <stop offset="0" stop-color="#ea7e19" style="vector-effect: non-scaling-stroke;"/>
   <stop offset="1" stop-color="#1581e6" style="vector-effect: non-scaling-stroke;"/>
  </radialGradient>
 </defs>
 <g class="layer">
  <title>Layer 1</title>
  <use fill="#1515ea" id="svg_29" transform="matrix(2.47518 0 0 1.42875 -389.217 -9.94536)" x="-7.272188" xlink:href="#svg_28" y="-3.49956"/>
  <rect fill="url(#svg_33)" height="62" id="svg_2" stroke="#0c138e" stroke-dasharray="null" stroke-linecap="null" stroke-linejoin="null" stroke-width="5" width="37" x="50.5" y="47.5"/>
  <rect fill="url(#svg_34)" height="62" id="svg_3" stroke="#0c138e" stroke-dasharray="null" stroke-linecap="null" stroke-linejoin="null" stroke-width="5" width="37" x="51" y="126"/>
  <rect fill="url(#svg_35)" height="62" id="svg_7" stroke="#0c138e" stroke-dasharray="null" stroke-linecap="null" stroke-linejoin="null" stroke-width="5" width="37" x="49" y="209"/>
  <rect fill="url(#svg_36)" height="62" id="svg_8" stroke="#0c138e" stroke-dasharray="null" stroke-linecap="null" stroke-linejoin="null" stroke-width="5" width="37" x="47" y="295"/>
  <rect fill="url(#svg_32)" height="62" id="svg_9" stroke="#0c138e" stroke-dasharray="null" stroke-linecap="null" stroke-linejoin="null" stroke-width="5" transform="rotate(-89.4595 73.5 396)" width="37" x="55" y="365"/>
  <rect fill="url(#svg_1)" height="62" id="svg_10" stroke="#0c138e" stroke-dasharray="null" stroke-linecap="null" stroke-linejoin="null" stroke-width="5" style="vector-effect: non-scaling-stroke;" transform="rotate(-88.3789 161.5 400)" width="37" x="143" y="369"/>
  <rect fill="url(#svg_1)" height="62" id="svg_11" stroke="#0c138e" stroke-dasharray="null" stroke-linecap="null" stroke-linejoin="null" stroke-width="5" style="vector-effect: non-scaling-stroke;" transform="rotate(-90.5405 249.5 400)" width="37" x="231" y="369"/>
  <rect fill="url(#svg_1)" height="62" id="svg_12" stroke="#0c138e" stroke-dasharray="null" stroke-linecap="null" stroke-linejoin="null" stroke-width="5" style="vector-effect: non-scaling-stroke;" transform="rotate(-90.5509 334.5 399)" width="37" x="316" y="368"/>
  <rect fill="url(#svg_1)" height="62" id="svg_13" stroke="#0c138e" stroke-dasharray="null" stroke-linecap="null" stroke-linejoin="null" stroke-width="5" style="vector-effect: non-scaling-stroke;" transform="rotate(-91.5343 418.5 399)" width="37" x="400" y="368"/>
  <rect fill="url(#svg_1)" height="62" id="svg_14" stroke="#0c138e" stroke-dasharray="null" stroke-linecap="null" stroke-linejoin="null" stroke-width="5" style="vector-effect: non-scaling-stroke;" transform="rotate(-90.5026 498.5 399)" width="37" x="480" y="368"/>
  <rect fill="url(#svg_1)" height="62" id="svg_15" stroke="#0c138e" stroke-dasharray="null" stroke-linecap="null" stroke-linejoin="null" stroke-width="5" style="vector-effect: non-scaling-stroke;" transform="rotate(-94.5943 581.5 397)" width="37" x="563" y="366"/>
  <text fill="#00007f" font-family="serif" font-size="24" id="svg_22" stroke="#0c138e" stroke-dasharray="null" stroke-linecap="null" stroke-linejoin="null" stroke-width="0" text-anchor="middle" transform="matrix(8.66552 0 0 8.81455 -1778.31 -2594.28)" x="247.518295" xml:space="preserve" y="333.930423">B R P</text>
  <g id="svg_30" style="vector-effect: non-scaling-stroke;"/>
  <polygon cx="263.5" cy="251.5" fill="#ff7f00" id="svg_31" orient="point" point="5" points="280.5,227.06312561035156 290.4775085449219,255.7671356201172 320.85986328125,256.3862762451172 296.6439514160156,274.7454833984375 305.44378662109375,303.8321533203125 280.5,286.4747619628906 255.5562286376953,303.8321533203125 264.3560485839844,274.7454833984375 240.14012145996094,256.3862762451172 270.5224914550781,255.7671356201172 280.5,227.06312561035156 290.4775085449219,255.7671356201172 " r="42.436881" r2="16.974752" shape="star" stroke="#ffff56" stroke-width="0" strokeWidth="0" strokecolor="#0c138e"/>
  <polygon cx="263.5" cy="251.5" fill="#ff7f00" id="svg_37" orient="point" point="5" points="469.5,227.615478515625 479.4775085449219,256.3194885253906 509.85986328125,256.93865966796875 485.6439514160156,275.2978515625 494.44378662109375,304.384521484375 469.5,287.0271301269531 444.5562438964844,304.384521484375 453.3560485839844,275.2978515625 429.14013671875,256.93865966796875 459.5224914550781,256.3194885253906 469.5,227.615478515625 479.4775085449219,256.3194885253906 " r="42.436881" r2="16.974752" shape="star" stroke="#ffff56" stroke-width="0" strokeWidth="0" strokecolor="#0c138e"/>
 </g>
</svg>